<svg width="31" height="57" viewBox="0 0 31 57" fill="none" xmlns="http://www.w3.org/2000/svg">
    <path d="M15.0787 11.8322C11.6641 11.7097 8.84218 13.9344 8.17718 18.3816C7.50781 22.855 9.65593 27.2147 15.0153 27.1163C20.7116 27.0134 22.4681 22.3803 21.7134 18.0906C20.8516 13.2169 18.0012 11.9394 15.0787 11.8322Z" fill="#FFBE1F"/>
    <path d="M17.846 15.8003C17.3669 15.7872 16.3344 16.8153 16.1288 17.045C15.7132 17.5109 16.0194 17.9725 16.4985 17.7406C16.96 17.5175 17.6753 17.0231 17.8547 17.0209C18.0472 17.0187 18.6028 17.3862 18.8369 17.5634C19.5107 18.0665 19.8847 17.5394 19.4713 17.034C19.2394 16.7519 18.395 15.8156 17.846 15.8003Z" fill="#F79429"/>
    <path d="M12.1387 15.8135C11.5919 15.785 10.3712 17.0297 10.3056 17.0997C9.95781 17.4803 10.2816 17.92 10.7453 17.7232C11.0122 17.6094 11.8566 17.045 12.06 17.0516C12.2109 17.056 12.5391 17.301 13.0116 17.6094C13.7859 18.1125 14.2125 17.5919 13.7006 17.0363C13.1844 16.4763 12.6134 15.8375 12.1387 15.8135Z" fill="#F79429"/>
    <path d="M9.76968 18.8694C9.45249 18.8475 8.80499 19.4381 8.62343 19.6394C8.44187 19.8406 8.29531 20.0178 8.43312 20.23C8.52718 20.3744 8.82249 20.3809 9.04562 20.2541C9.33218 20.0922 9.62749 19.9325 9.73906 19.9369C9.92062 19.9456 10.6403 20.5822 10.8634 20.7725C11.4453 21.2647 11.815 20.6041 11.4934 20.2234C11.15 19.8166 10.3559 18.9109 9.76968 18.8694Z" fill="#F79429"/>
    <path d="M15.0284 18.9219C14.4203 18.9131 13.2872 20.1228 13.1144 20.324C12.6966 20.8119 13.0138 21.4615 13.6634 21.0065C13.8581 20.8687 14.6763 20.1665 14.9716 20.1884C15.1597 20.2037 15.8006 20.7069 16.2403 21.0153C16.8266 21.4287 17.2225 20.9519 16.8178 20.4094C16.6363 20.1644 15.7 18.9306 15.0284 18.9219Z" fill="#F79429"/>
    <path d="M20.1078 18.784C19.7556 18.7644 18.5722 20.009 18.3709 20.2715C18.0231 20.7265 18.4038 21.1597 18.9375 20.7812C19.3159 20.5122 20.1013 19.9194 20.1822 19.915C20.2981 19.9062 20.6088 20.1403 20.8472 20.2781C21.1031 20.4269 21.3963 20.4137 21.4859 20.2453C21.6084 20.0178 21.4269 19.7947 21.2409 19.6219C20.9303 19.3287 20.4141 18.8015 20.1078 18.784Z" fill="#F79429"/>
    <path d="M17.7344 22.2928C17.1 22.3037 16.1878 23.3822 16.0215 23.66C15.7044 24.1937 16.1922 24.4169 16.4656 24.2812C16.879 24.0734 17.3253 23.59 17.7672 23.5091C17.9575 23.4741 18.5744 23.9619 18.7362 24.0625C19.5412 24.5656 19.8322 23.8853 19.3006 23.3581C18.9178 22.9797 18.1915 22.2841 17.7344 22.2928Z" fill="#F79429"/>
    <path d="M12.3225 22.2731C11.8763 22.2513 10.8088 23.2203 10.5419 23.4784C10.1831 23.8284 10.4435 24.4103 11.0122 24.1347C11.5088 23.8941 12.1038 23.5266 12.27 23.5353C12.48 23.5463 12.9328 23.8984 13.2019 24.0822C14.0025 24.6334 14.3481 24.0275 13.8494 23.45C13.4928 23.0409 12.8038 22.2972 12.3225 22.2731Z" fill="#F79429"/>
    <path d="M6.58468 5.17999C6.38561 4.92405 7.48155 4.33343 8.63655 4.30062C10.0869 4.25905 11.4169 4.64405 11.4169 4.64405C11.4169 4.64405 11.5372 3.6903 10.7716 2.6228C10.2466 1.88999 10.0081 1.52687 10.0234 1.26655C10.0387 1.00405 11.1762 0.844365 12.6922 1.5203C13.9587 2.08468 14.9431 3.16093 14.9431 3.16093C14.9431 3.16093 15.7437 2.04093 16.7981 1.50062C18.0231 0.874991 19.5237 0.767803 19.655 1.01499C19.7556 1.20312 19.2787 1.75437 18.9659 2.46312C18.4737 3.57437 18.5022 4.49093 18.5022 4.49093C18.5022 4.49093 19.5216 3.74718 20.6153 3.52843C21.1709 3.41687 22.8094 3.31624 22.7 3.71655C22.6825 3.77999 19.8825 5.74655 19.8825 5.74655L19.4647 7.79186C19.4647 7.79186 20.95 6.94312 22.2734 7.09843C22.9581 7.17937 22.8444 7.39374 22.8444 7.39374L19.6681 9.19624L19.1956 10.7559C19.1956 10.7559 20.0859 10.5328 20.9522 10.5219C21.37 10.5175 22.0547 10.6269 22.0875 10.8391C22.1312 11.1125 20.1734 12.0794 20.1734 12.0794L14.9037 14.2144L9.90093 12.4031C9.90093 12.4031 7.65436 12.0487 7.65436 11.8037C7.65436 11.5566 8.1028 11.3641 8.77655 11.2591C9.5553 11.1366 10.3559 11.1803 10.3559 11.1803L8.04374 9.64686C8.04374 9.64686 6.62186 9.51343 6.49936 9.23561C6.37686 8.9578 7.13811 8.4503 7.60405 8.31468C8.78311 7.96905 10.1262 8.24468 10.1262 8.24468L9.36718 6.21249C9.3628 6.20593 6.80124 5.4578 6.58468 5.17999Z" fill="#2F7C31"/>
    <path d="M12.8913 7.34782C13.0094 7.40688 13.3156 6.68063 13.6941 6.21469C14.2453 5.53438 14.9628 5.02469 15.0875 5.02469C15.2078 5.02469 15.77 5.45125 16.2578 6.03532C16.8484 6.74407 17.1131 7.33688 17.1722 7.36532C17.3909 7.4725 18.0997 6.22344 19.4647 5.16907C20.6438 4.25688 22.6016 3.44094 22.7044 3.71657C22.7372 3.80625 21.7331 4.46688 20.7706 5.80563C19.7141 7.27344 19.8169 8.855 19.8169 8.855C19.8169 8.855 21.0266 7.98657 21.4159 7.78532C21.7419 7.61688 22.9778 7.14219 22.8378 7.40688C22.7372 7.595 21.5559 8.77188 20.8778 9.41719C19.8103 10.4278 19.4953 11.935 19.5981 12.0203C19.7163 12.1188 20.5103 11.5303 20.9894 11.2613C21.4444 11.0053 22.0875 10.7975 22.0831 10.8413C22.0547 11.1628 20.8953 11.9984 20.0794 12.7313C19.4756 13.2716 18.3075 14.8138 14.9803 14.7591C12.2306 14.7153 10.6228 13.2759 9.62095 12.7378C8.9297 12.3659 7.64345 11.9503 7.65876 11.8234C7.66751 11.7534 8.27126 11.7053 8.67813 11.7556C9.80251 11.8913 10.5244 12.2303 10.6009 12.1319C10.6797 12.0313 9.60563 10.6706 7.75063 9.84375C6.85595 9.44344 6.46438 9.34063 6.48188 9.16125C6.48845 9.0825 7.04845 8.97969 7.76157 8.95563C9.02595 8.91407 10.2291 9.36032 10.3406 9.37344C10.6031 9.40625 9.5422 7.56657 8.94063 6.84907C7.98688 5.70938 6.49938 5.40532 6.56063 5.11875C6.59345 4.96344 8.32595 4.94157 9.74782 5.47532C11.2288 6.02657 12.6353 7.22094 12.8913 7.34782Z" fill="#709921"/>
    <path d="M15.0831 8.365C14.9497 8.3825 14.4225 8.66688 13.7291 9.39532C12.9088 10.255 12.62 11.1847 12.8103 11.3422C13.0663 11.5522 13.4228 11.1519 13.9128 10.8063C14.4903 10.3994 14.9585 10.1784 15.0591 10.1784C15.1597 10.1784 15.6103 10.4628 15.9888 10.7494C16.4591 11.1081 16.866 11.4953 17.0738 11.3641C17.4238 11.1475 16.9381 10.0144 16.3913 9.39532C15.8094 8.73469 15.1991 8.34969 15.0831 8.365Z" fill="#2F7C31"/>
    <path d="M23.415 48.556C23.612 46.916 23.553 46.676 24.775 46.942L25.075 46.969C26.015 47.012 27.242 46.819 27.965 46.483C29.518 45.763 30.439 44.559 28.908 44.875C25.414 45.595 25.174 44.413 25.174 44.413C28.864 38.939 30.404 31.99 29.074 30.29C25.444 25.65 19.158 27.845 19.054 27.902L19.021 27.908C18.331 27.765 17.558 27.678 16.691 27.665C15.111 27.639 13.911 28.079 12.991 28.77C12.991 28.77 1.779 24.15 2.291 34.58C2.401 36.798 5.471 51.366 9.131 46.966C10.469 45.356 11.761 43.996 11.761 43.996C12.403 44.423 13.161 44.64 13.978 44.562L14.04 44.509C14.0213 44.7179 14.0297 44.9283 14.065 45.135C13.122 46.188 13.399 46.375 11.515 46.762C9.608 47.155 10.728 47.855 11.46 48.038C12.347 48.26 14.4 48.574 15.785 46.633L15.73 46.855C16.1 47.151 16.075 48.982 16.127 50.29C16.179 51.598 16.267 52.82 16.534 53.54C16.801 54.26 17.114 56.114 19.594 55.583C21.664 55.139 23.248 54.501 23.392 48.56" fill="#231F20"/>
    <path d="M23.415 48.556C23.612 46.916 23.553 46.676 24.775 46.942L25.075 46.969C26.015 47.012 27.242 46.819 27.965 46.483C29.518 45.763 30.439 44.559 28.908 44.875C25.414 45.595 25.174 44.413 25.174 44.413C28.864 38.939 30.404 31.99 29.074 30.29C25.444 25.65 19.158 27.845 19.054 27.902L19.021 27.908C18.331 27.765 17.558 27.678 16.691 27.665C15.111 27.639 13.911 28.079 12.991 28.77C12.991 28.77 1.779 24.15 2.291 34.58C2.401 36.798 5.471 51.366 9.131 46.966C10.469 45.356 11.761 43.996 11.761 43.996C12.403 44.423 13.161 44.64 13.978 44.562L14.04 44.509C14.0213 44.7179 14.0297 44.9283 14.065 45.135C13.122 46.188 13.399 46.375 11.515 46.762C9.608 47.155 10.728 47.855 11.46 48.038C12.347 48.26 14.4 48.574 15.785 46.633L15.73 46.855C16.1 47.151 16.075 48.982 16.127 50.29C16.179 51.598 16.267 52.82 16.534 53.54C16.801 54.26 17.114 56.114 19.594 55.583C21.664 55.139 23.248 54.501 23.392 48.56" stroke="#231F20" stroke-width="2.598"/>
    <path d="M28.916 44.875C25.422 45.595 25.182 44.413 25.182 44.413C28.872 38.939 30.412 31.99 29.082 30.289C25.452 25.649 19.166 27.844 19.062 27.901L19.028 27.907C18.338 27.764 17.565 27.677 16.698 27.664C15.118 27.638 13.918 28.078 12.998 28.769C12.998 28.769 1.78599 24.149 2.29799 34.579C2.40799 36.799 5.47799 51.365 9.13799 46.965C10.476 45.355 11.768 43.995 11.768 43.995C12.41 44.422 13.178 44.639 13.984 44.561L14.047 44.508C14.027 44.708 14.037 44.903 14.072 45.134C13.129 46.187 13.406 46.374 11.522 46.761C9.61499 47.154 10.735 47.854 11.467 48.037C12.354 48.259 14.407 48.573 15.792 46.632L15.737 46.854C16.107 47.15 16.367 48.779 16.322 50.254C16.277 51.729 16.25 52.744 16.542 53.536C16.834 54.328 17.122 56.11 19.602 55.579C21.672 55.135 22.746 53.985 22.895 52.067C23.001 50.703 23.241 50.905 23.255 49.687L23.447 49.11C23.669 47.26 23.482 46.665 24.757 46.943L25.057 46.97C25.997 47.013 27.225 46.82 27.947 46.484C29.5 45.764 30.421 44.56 28.89 44.876L28.916 44.875Z" fill="#417BA2"/>
    <path d="M15.96 45.935C15.864 49.375 15.984 52.838 16.32 53.68C16.656 54.522 17.377 56.16 19.856 55.628C21.926 55.184 22.68 54.325 23.006 52.428L23.771 46.365M13 28.692C13 28.692 1.78 24.106 2.3 34.534C2.4 36.754 5.48 51.321 9.14 46.921C10.478 45.321 11.687 44.051 11.687 44.051M19.05 27.855C18.65 27.977 25.29 25.432 29.058 30.255C30.388 31.955 28.858 38.905 25.158 44.379" stroke="white" stroke-width="0.866" stroke-linecap="round" stroke-linejoin="round"/>
    <path d="M25.157 44.37C25.157 44.37 25.397 45.553 28.892 44.832C30.422 44.516 29.492 45.719 27.949 46.44C26.675 47.03 23.819 47.183 23.771 46.366C23.651 44.256 25.275 44.898 25.157 44.37ZM25.157 44.37C25.051 43.894 24.325 43.427 23.845 42.263C23.425 41.246 18.095 33.451 25.325 34.609C25.59 34.554 23.439 27.732 16.673 27.621C9.90701 27.51 10.131 35.941 10.131 35.941" stroke="white" stroke-width="0.866" stroke-linecap="round" stroke-linejoin="bevel"/>
    <path d="M14.066 45.0901C13.123 46.1431 13.4 46.3301 11.516 46.7171C9.60901 47.1101 10.729 47.8101 11.461 47.9931C12.348 48.2151 14.401 48.5291 15.786 46.5881C16.208 45.9981 15.784 45.0541 15.204 44.8131C14.924 44.6971 14.549 44.5531 14.068 45.0901H14.066Z" stroke="white" stroke-width="0.866" stroke-linejoin="round"/>
    <path d="M14.004 45.0721C13.909 44.4521 14.208 43.716 14.527 42.852C15.007 41.558 16.127 40.2641 15.23 36.16C14.57 33.102 10.132 35.523 10.13 35.938C10.128 36.353 10.33 38.04 10.056 40.005C9.696 42.569 11.686 44.738 13.979 44.515" stroke="white" stroke-width="0.866" stroke-linecap="round" stroke-linejoin="round"/>
    <path d="M12.948 35.877C12.928 36.019 13.208 36.397 13.571 36.447C13.934 36.497 14.246 36.202 14.265 36.061C14.284 35.92 14.005 35.763 13.641 35.711C13.277 35.659 12.966 35.734 12.947 35.876L12.948 35.877Z" fill="white" stroke="white" stroke-width="0.289"/>
    <path d="M24.022 35.588C24.042 35.73 23.762 36.108 23.399 36.158C23.036 36.208 22.724 35.913 22.704 35.772C22.684 35.631 22.964 35.474 23.328 35.424C23.692 35.374 24.003 35.447 24.023 35.589L24.022 35.588Z" fill="white" stroke="white" stroke-width="0.144"/>
    <path d="M25.323 34.608C25.383 35.718 25.083 36.476 25.046 37.658C24.99 39.378 25.866 41.345 24.546 43.315" stroke="white" stroke-width="0.866" stroke-linecap="round" stroke-linejoin="round"/>
</svg>
